<svg width="28" height="27" viewBox="0 0 28 27" fill="none" xmlns="http://www.w3.org/2000/svg">
<path d="M20.6875 18.3125L15.875 13.5L20.6875 8.6875L18.8125 6.8125L14 11.625L9.1875 6.8125L7.3125 8.6875L12.125 13.5L7.3125 18.3125L9.1875 20.1875L14 15.375L18.8125 20.1875L20.6875 18.3125ZM4.5625 4.125C7.1875 1.5 10.3333 0.1875 14 0.1875C17.6667 0.1875 20.7917 1.5 23.375 4.125C26 6.70833 27.3125 9.83333 27.3125 13.5C27.3125 17.1667 26 20.3125 23.375 22.9375C20.7917 25.5208 17.6667 26.8125 14 26.8125C10.3333 26.8125 7.1875 25.5208 4.5625 22.9375C1.97917 20.3125 0.6875 17.1667 0.6875 13.5C0.6875 9.83333 1.97917 6.70833 4.5625 4.125Z" fill="#334155"/>
</svg>
